<?xml version="1.0"?>
<svg version="1.1" xmlns="http://www.w3.org/2000/svg" width="430" height="40" style=""><path fill="#ff0303" d="M27.93896484375,39.787109375l-5.671875-18.48193359375l-0.14501953125,0q0.30615234375,5.6396484375,0.30615234375,7.52490234375l0,10.95703125l-4.46337890625,0l0-23.5576171875l6.7998046875,0l5.5751953125,18.0146484375l0.0966796875,0l5.91357421875-18.0146484375l6.7998046875,0l0,23.5576171875l-4.65673828125,0l0-11.150390625q0-0.78955078125,0.024169921875-1.82080078125t0.217529296875-5.478515625l-0.14501953125,0l-6.07470703125,18.44970703125l-4.576171875,0z M51.347856445313,39.787109375l0-23.5576171875l4.9951171875,0l0,23.5576171875l-4.9951171875,0z M64.540927734375,39.787109375l0-23.5576171875l4.9951171875,0l0,19.4326171875l9.55517578125,0l0,4.125l-14.55029296875,0z M85.452260742188,39.787109375l0-23.5576171875l4.9951171875,0l0,19.4326171875l9.55517578125,0l0,4.125l-14.55029296875,0z M116.36994140625,20.04833984375q-2.81982421875,0-4.36669921875,2.118896484375t-1.546875,5.905517578125q0,7.87939453125,5.91357421875,7.87939453125q2.4814453125,0,6.01025390625-1.24072265625l0,4.189453125q-2.900390625,1.20849609375-6.4775390625,1.20849609375q-5.14013671875,0-7.86328125-3.117919921875t-2.72314453125-8.950927734375q0-3.673828125,1.33740234375-6.437255859375t3.843017578125-4.23779296875t5.873291015625-1.474365234375q3.43212890625,0,6.896484375,1.65966796875l-1.611328125,4.060546875q-1.3212890625-0.62841796875-2.65869140625-1.095703125t-2.62646484375-0.46728515625z M134.65480957031,26.68701171875l1.611328125,0q2.36865234375,0,3.49658203125-0.78955078125t1.1279296875-2.4814453125q0-1.67578125-1.152099609375-2.384765625t-3.569091796875-0.708984375l-1.5146484375,0l0,6.36474609375z M134.65480957031,30.74755859375l0,9.03955078125l-4.9951171875,0l0-23.5576171875l6.8642578125,0q4.8017578125,0,7.10595703125,1.748291015625t2.30419921875,5.309326171875q0,2.07861328125-1.14404296875,3.697998046875t-3.23876953125,2.537841796875q5.3173828125,7.94384765625,6.9287109375,10.26416015625l-5.54296875,0l-5.62353515625-9.03955078125l-2.65869140625,0z M167.28049804688,39.787109375l-13.5673828125,0l0-23.5576171875l13.5673828125,0l0,4.0927734375l-8.572265625,0l0,5.17236328125l7.97607421875,0l0,4.0927734375l-7.97607421875,0l0,6.07470703125l8.572265625,0l0,4.125z M188.03069824219,39.787109375l-13.5673828125,0l0-23.5576171875l13.5673828125,0l0,4.0927734375l-8.572265625,0l0,5.17236328125l7.97607421875,0l0,4.0927734375l-7.97607421875,0l0,6.07470703125l8.572265625,0l0,4.125z M214.162734375,39.787109375l-5.671875,0l-6.17138671875-9.92578125l-2.11083984375,1.5146484375l0,8.4111328125l-4.9951171875,0l0-23.5576171875l4.9951171875,0l0,10.77978515625l1.9658203125-2.771484375l6.380859375-8.00830078125l5.54296875,0l-8.2177734375,10.42529296875z M249.54008789063,39.787109375l-4.97900390625,0l0-10.16748046875l-9.32958984375,0l0,10.16748046875l-4.9951171875,0l0-23.5576171875l4.9951171875,0l0,9.23291015625l9.32958984375,0l0-9.23291015625l4.97900390625,0l0,23.5576171875z M279.13647949219,27.97607421875q0,5.84912109375-2.900390625,8.9912109375t-8.314453125,3.14208984375t-8.314453125-3.14208984375t-2.900390625-9.0234375t2.908447265625-8.983154296875t8.338623046875-3.101806640625t8.306396484375,3.1259765625t2.876220703125,8.9912109375z M261.94360839844,27.97607421875q0,3.94775390625,1.49853515625,5.94580078125t4.4794921875,1.998046875q5.97802734375,0,5.97802734375-7.94384765625q0-7.9599609375-5.94580078125-7.9599609375q-2.98095703125,0-4.49560546875,2.006103515625t-1.5146484375,5.953857421875z M296.26119140625,39.787109375l-5.671875-18.48193359375l-0.14501953125,0q0.30615234375,5.6396484375,0.30615234375,7.52490234375l0,10.95703125l-4.46337890625,0l0-23.5576171875l6.7998046875,0l5.5751953125,18.0146484375l0.0966796875,0l5.91357421875-18.0146484375l6.7998046875,0l0,23.5576171875l-4.65673828125,0l0-11.150390625q0-0.78955078125,0.024169921875-1.82080078125t0.217529296875-5.478515625l-0.14501953125,0l-6.07470703125,18.44970703125l-4.576171875,0z M333.23746582031,39.787109375l-13.5673828125,0l0-23.5576171875l13.5673828125,0l0,4.0927734375l-8.572265625,0l0,5.17236328125l7.97607421875,0l0,4.0927734375l-7.97607421875,0l0,6.07470703125l8.572265625,0l0,4.125z M354.32604492188,33.2451171875q0,3.1904296875-2.296142578125,5.02734375t-6.388916015625,1.8369140625q-3.7705078125,0-6.6708984375-1.41796875l0-4.640625q2.384765625,1.0634765625,4.036376953125,1.49853515625t3.021240234375,0.43505859375q1.6435546875,0,2.521728515625-0.62841796875t0.878173828125-1.869140625q0-0.69287109375-0.38671875-1.232666015625t-1.135986328125-1.039306640625t-3.053466796875-1.59521484375q-2.1591796875-1.01513671875-3.23876953125-1.94970703125t-1.72412109375-2.17529296875t-0.64453125-2.900390625q0-3.1259765625,2.118896484375-4.91455078125t5.857177734375-1.78857421875q1.8369140625,0,3.504638671875,0.43505859375t3.488525390625,1.224609375l-1.611328125,3.88330078125q-1.88525390625-0.7734375-3.117919921875-1.07958984375t-2.425048828125-0.30615234375q-1.41796875,0-2.17529296875,0.66064453125t-0.75732421875,1.72412109375q0,0.66064453125,0.30615234375,1.152099609375t0.974853515625,0.95068359375t3.166259765625,1.651611328125q3.30322265625,1.5791015625,4.52783203125,3.166259765625t1.224609375,3.891357421875z M369.95222167969,39.787109375l-4.9951171875,0l0-19.400390625l-6.39697265625,0l0-4.1572265625l17.7890625,0l0,4.1572265625l-6.39697265625,0l0,19.400390625z M396.6643359375,39.787109375l-1.7080078125-5.607421875l-8.58837890625,0l-1.7080078125,5.607421875l-5.3818359375,0l8.314453125-23.654296875l6.10693359375,0l8.3466796875,23.654296875l-5.3818359375,0z M393.7639453125,29.990234375q-2.36865234375-7.62158203125-2.666748046875-8.62060546875t-0.427001953125-1.5791015625q-0.53173828125,2.0625-3.04541015625,10.19970703125l6.13916015625,0z M414.61082519531,25.9296875l4.91455078125-9.7001953125l5.3818359375,0l-7.81494140625,14.38916015625l0,9.16845703125l-4.962890625,0l0-9.00732421875l-7.81494140625-14.55029296875l5.4140625,0z"/><path fill="#" d=""/></svg>
